<svg xmlns="http://www.w3.org/2000/svg" xmlns:xlink="http://www.w3.org/1999/xlink" width="1200" height="430" viewBox="0 0 1200 430" role="img" aria-labelledby="title desc">
<title id="title">Connect with Aman Kumar</title><desc id="desc">Premium technology banner with clickable GitHub, LinkedIn, portfolio and CodePen links.</desc>
<defs><linearGradient id="bg" x1="0" y1="0" x2="1" y2="1"><stop stop-color="#070b16"/><stop offset="1" stop-color="#11182b"/></linearGradient><linearGradient id="edge" x1="0" y1="0" x2="1" y2="0"><stop stop-color="#247bff"/><stop offset=".55" stop-color="#7966ff"/><stop offset="1" stop-color="#ff354f"/></linearGradient><pattern id="dots" width="24" height="24" patternUnits="userSpaceOnUse"><circle cx="2" cy="2" r="1" fill="#8da6d8" opacity=".18"/></pattern><filter id="glow" x="-40%" y="-40%" width="180%" height="180%"><feGaussianBlur stdDeviation="20"/></filter><style>.eyebrow{font:600 13px 'DejaVu Sans',Arial,sans-serif;letter-spacing:3px;fill:#8da6d8}.heading{font:800 42px 'DejaVu Sans',Arial,sans-serif;letter-spacing:.5px;fill:#f5f7ff}.sub{font:400 15px 'DejaVu Sans',Arial,sans-serif;fill:#9aa8c6}.label{font:700 16px 'DejaVu Sans',Arial,sans-serif;fill:#f5f7ff}.arrow{font:700 20px 'DejaVu Sans',Arial,sans-serif;fill:#78adff}.btn{fill:#0c1324;stroke:#263653;stroke-width:1.3}a:hover .btn{fill:#101e37;stroke:#398bff;stroke-width:2}a:hover .label{fill:#9bc4ff}</style></defs>
<rect width="1200" height="430" rx="26" fill="url(#bg)"/><rect width="1200" height="430" rx="26" fill="url(#dots)"/><ellipse cx="1060" cy="40" rx="190" ry="110" fill="#247bff" opacity=".13" filter="url(#glow)"/><ellipse cx="120" cy="420" rx="180" ry="90" fill="#ff354f" opacity=".08" filter="url(#glow)"/><rect x="1" y="1" width="1198" height="428" rx="25" fill="none" stroke="url(#edge)" stroke-opacity=".8" stroke-width="2"/>
<path d="M54 48h52" stroke="#247bff" stroke-width="4" stroke-linecap="round"/><text x="54" y="77" class="eyebrow">OPEN TO OPPORTUNITIES &amp; COLLABORATION</text><text x="54" y="132" class="heading">LET’S BUILD SOMETHING.</text><text x="56" y="163" class="sub">Web experiences, data-driven ideas, and meaningful projects.</text><text x="1146" y="77" text-anchor="end" class="eyebrow">SAY HELLO ↗</text>
<a href="https://github.com/student-AmanKumar" xlink:href="https://github.com/student-AmanKumar" target="_blank" aria-label="Visit Aman Kumar on GitHub"><rect class="btn" x="54" y="208" width="255" height="88" rx="16"/><circle cx="91" cy="252" r="20" fill="#1c2c4a"/><path d="M91 237a15 15 0 0 0-4.7 29.2c.8.1 1.1-.3 1.1-.8v-3c-4.5 1-5.4-1.9-5.4-1.9-.7-1.8-1.8-2.3-1.8-2.3-1.5-1 .1-1 .1-1 1.6.1 2.5 1.7 2.5 1.7 1.4 2.4 3.7 1.7 4.6 1.3.1-1 .5-1.7 1-2.1-3.6-.4-7.4-1.8-7.4-8.1 0-1.8.6-3.2 1.7-4.3-.2-.4-.7-2 .2-4.2 0 0 1.4-.4 4.4 1.6a15.2 15.2 0 0 1 8 0c3-2 4.4-1.6 4.4-1.6.9 2.2.4 3.8.2 4.2 1.1 1.1 1.7 2.5 1.7 4.3 0 6.3-3.8 7.7-7.4 8.1.6.5 1.1 1.4 1.1 2.8v4.5c0 .5.3.9 1.1.8A15 15 0 0 0 91 237z" fill="#8dbaff" transform="translate(-5 -3) scale(1.02)"/><text x="126" y="258" class="label">GitHub</text><text x="283" y="260" text-anchor="end" class="arrow">↗</text></a>
<a href="https://www.linkedin.com/in/aman-kumar-462a21316/" xlink:href="https://www.linkedin.com/in/aman-kumar-462a21316/" target="_blank" aria-label="Visit Aman Kumar on LinkedIn"><rect class="btn" x="331" y="208" width="255" height="88" rx="16"/><circle cx="368" cy="252" r="20" fill="#16395b"/><text x="368" y="260" text-anchor="middle" font-family="Arial,sans-serif" font-size="24" font-weight="700" fill="#7cc5ff">in</text><text x="403" y="258" class="label">LinkedIn</text><text x="560" y="260" text-anchor="end" class="arrow">↗</text></a>
<a href="https://student-amankumar.github.io/aman-digital-space/" xlink:href="https://student-amankumar.github.io/aman-digital-space/" target="_blank" aria-label="Visit Aman Kumar personal portfolio"><rect class="btn" x="608" y="208" width="255" height="88" rx="16"/><circle cx="645" cy="252" r="20" fill="#49371b"/><circle cx="645" cy="252" r="11" fill="none" stroke="#ffd27a" stroke-width="2"/><path d="M634 252h22M645 241c5 5 5 17 0 22M645 241c-5 5-5 17 0 22" fill="none" stroke="#ffd27a" stroke-width="1.5"/><text x="680" y="258" class="label">Portfolio</text><text x="837" y="260" text-anchor="end" class="arrow">↗</text></a>
<a href="https://codepen.io/ydvaman" xlink:href="https://codepen.io/ydvaman" target="_blank" aria-label="Visit Aman Kumar on CodePen"><rect class="btn" x="885" y="208" width="261" height="88" rx="16"/><circle cx="922" cy="252" r="20" fill="#26334c"/><path d="M922 238l13 8v12l-13 8-13-8v-12zM909 246l13 8 13-8M909 258l13-8 13 8M922 254v12" fill="none" stroke="#a9c2f5" stroke-width="1.8" stroke-linejoin="round"/><text x="957" y="258" class="label">CodePen</text><text x="1120" y="260" text-anchor="end" class="arrow">↗</text></a>
<path d="M54 333H1146" stroke="#25324c" stroke-width="1"/><text x="54" y="366" class="eyebrow">AMAN KUMAR</text><text x="54" y="390" class="sub">Web Developer  ·  Aspiring Data Analyst  ·  Digital Creator</text><text x="1146" y="379" text-anchor="end" class="eyebrow">LET’S CONNECT / 2026</text>
</svg>
